<svg xmlns="http://www.w3.org/2000/svg">
  <symbol id="mail" viewBox="0 0 48 48" fill="none">
    <rect x="5" y="9" width="38" height="30" rx="4" stroke="currentColor" stroke-width="3.5"/>
    <path d="M7.5 12.5 24 26l16.5-13.5" stroke="currentColor" stroke-width="3.5" stroke-linecap="round" stroke-linejoin="round"/>
  </symbol>
  <symbol id="pin" viewBox="0 0 48 48" fill="none">
    <path d="M24 43S10 31.4 10 19.5a14 14 0 1 1 28 0C38 31.4 24 43 24 43Z" stroke="currentColor" stroke-width="3.5" stroke-linejoin="round"/>
    <circle cx="24" cy="19" r="5" stroke="currentColor" stroke-width="3.5"/>
  </symbol>
  <symbol id="rocket" viewBox="0 0 48 48" fill="none">
    <path d="M27 27c7.4-3.7 11.8-10.1 13-19-8.9 1.2-15.3 5.6-19 13l6 6Z" stroke="currentColor" stroke-width="3.5" stroke-linejoin="round"/>
    <path d="m21 21-8 2-6 6 11 1m9-3-2 8-6 6-1-11" stroke="currentColor" stroke-width="3.5" stroke-linecap="round" stroke-linejoin="round"/>
    <circle cx="31" cy="17" r="3" fill="#ea584a"/>
  </symbol>
  <symbol id="globe" viewBox="0 0 48 48" fill="none">
    <circle cx="24" cy="24" r="18" stroke="currentColor" stroke-width="3.5"/>
    <path d="M6 24h36M24 6c5 5 7.5 11 7.5 18S29 37 24 42M24 6c-5 5-7.5 11-7.5 18S19 37 24 42" stroke="currentColor" stroke-width="3.5" stroke-linecap="round"/>
  </symbol>
  <symbol id="document" viewBox="0 0 48 48" fill="none">
    <path d="M11 5h18l8 8v30H11V5Z" stroke="currentColor" stroke-width="3.5" stroke-linejoin="round"/>
    <path d="M29 5v9h8M17 23h14M17 30h14M17 37h9" stroke="currentColor" stroke-width="3.5" stroke-linecap="round" stroke-linejoin="round"/>
  </symbol>
  <symbol id="search" viewBox="0 0 48 48" fill="none">
    <circle cx="21" cy="21" r="13" stroke="currentColor" stroke-width="3.5"/>
    <path d="m31 31 10 10" stroke="currentColor" stroke-width="4" stroke-linecap="round"/>
  </symbol>
  <symbol id="iad-people" viewBox="0 0 48 48">
    <circle cx="24" cy="8" r="5" fill="#ea584a"/>
    <circle cx="10" cy="15" r="5" fill="currentColor"/>
    <circle cx="38" cy="15" r="5" fill="currentColor"/>
    <rect x="18.5" y="15" width="11" height="28" rx="5.5" fill="currentColor"/>
    <rect x="4.5" y="22" width="11" height="21" rx="5.5" fill="#ea584a"/>
    <rect x="32.5" y="22" width="11" height="21" rx="5.5" fill="currentColor"/>
  </symbol>
  <symbol id="iad-plus" viewBox="0 0 48 48">
    <rect x="19" y="4" width="10" height="40" rx="5" fill="currentColor"/>
    <rect x="4" y="19" width="40" height="10" rx="5" fill="#ea584a"/>
  </symbol>
  <symbol id="iad-check" viewBox="0 0 48 48" fill="none">
    <path d="m8 25 10 10" stroke="#ea584a" stroke-width="9" stroke-linecap="round"/>
    <path d="m18 35 22-24" stroke="currentColor" stroke-width="9" stroke-linecap="round"/>
  </symbol>
</svg>
